<svg width="463.0346216743855" height="320.75998535156253" viewBox="0 -5 350 242.45702074518826" class="looka-1j8o68f"><defs id="SvgjsDefs11525"><linearGradient id="SvgjsLinearGradient11532"><stop id="SvgjsStop11533" stop-color="#ef4136" offset="0"></stop><stop id="SvgjsStop11534" stop-color="#fbb040" offset="1"></stop></linearGradient></defs><g id="SvgjsG11526" featurekey="symbolFeature-0" transform="matrix(0.002991947578266263,0,0,0.002991947578266263,85.55419660773526,-13.91634976789166)" fill="url(#SvgjsLinearGradient11532)"><defs xmlns="http://www.w3.org/2000/svg"></defs><g xmlns="http://www.w3.org/2000/svg"><path d="M10930 12906c-84,-204 14,-437 217,-520 204,-84 437,14 520,217 3347,8080 8167,15194 12983,22303 3166,4674 6332,9346 9083,14293 89,160 56,355 -69,478l0 0c-519,511 -1243,1003 -2016,1504l572 906 5696 -1182c-274,-376 -526,-741 -760,-1098 -851,-1298 -1467,-2497 -2091,-3755 -98,-198 -16,-437 181,-534 198,-98 437,-16 534,181 609,1230 1212,2401 2044,3671 811,1238 1840,2570 3307,4141 161,14 355,-41 600,-109l22 -6 0 0 1 0c2391,-669 3977,-1034 5093,-1190 1171,-164 1856,-101 2403,84 702,238 823,670 944,1105 97,347 196,699 1383,692 -1331,-4810 -3277,-9527 -5549,-14193 -2353,-4832 -5055,-9611 -7785,-14386 -935,-1636 -1896,-3161 -2848,-4673 -2062,-3275 -4086,-6489 -5627,-10409 -10,-25 -68,-175 -122,-314 -160,-415 -250,-647 -390,-841 -146,-203 -769,-813 -1394,-1386l-52 -48c560,1810 1144,4818 1819,8300 1054,5432 2335,12035 3992,16848 72,209 -40,436 -248,508 -209,72 -436,-40 -508,-248 -1673,-4859 -2961,-11497 -4020,-16957 -958,-4938 -1726,-8894 -2328,-9517 -257,-100 -560,-80 -863,-59 -118,8 -236,16 -384,18 -676,9 -1147,-63 -1521,-212 -398,-159 -668,-389 -936,-691 -120,-135 -205,-268 -269,-400 -60,845 -76,1710 -44,2599 51,1372 219,2799 524,4293 44,216 -95,426 -311,470 -216,44 -426,-95 -470,-311 -314,-1538 -487,-3009 -540,-4424 -49,-1337 9,-2625 159,-3870l-7 -5c-405,-281 -1550,-419 -2679,-399 -1059,19 -2059,166 -2324,451 -313,849 -471,1731 -540,2642 -72,951 -48,1932 -1,2942 9,220 -161,406 -381,416 -220,9 -406,-161 -416,-381 -48,-1042 -73,-2054 1,-3036 33,-443 87,-880 167,-1312 -370,310 -769,584 -1187,837 -515,313 -1076,521 -1638,729 -912,339 -1826,678 -2386,1450 -1975,3711 -2508,7227 -1983,10741 529,3544 2131,7098 4414,10853l8 13c2479,4293 4810,8399 6887,12657 2043,4191 3852,8549 5332,13412l2054 -199c-464,-981 -237,-1842 361,-2626 -3932,-6094 -7223,-11910 -10064,-17578 -2880,-5747 -5295,-11338 -7443,-16913 -79,-205 23,-436 228,-516 205,-79 436,23 516,228 2142,5558 4547,11127 7412,16844 2798,5584 6039,11314 9906,17322 353,-340 766,-666 1208,-983 477,-342 1001,-680 1516,-1011 341,-220 678,-437 995,-651l-9767 -15954c-72,-118 -35,-271 83,-343 118,-72 271,-35 343,83l9751 15928c239,-172 460,-343 654,-512 -2703,-4824 -5797,-9391 -8893,-13960 -4840,-7144 -9684,-14293 -13061,-22447zm28667 20722c-79,-113 -52,-268 61,-348 113,-79 268,-52 348,61 1381,1964 2631,4159 3740,6482 1185,2482 2212,5114 3066,7767 42,131 -30,271 -161,313 -131,42 -271,-30 -313,-161 -846,-2627 -1865,-5237 -3043,-7704 -1099,-2300 -2335,-4472 -3697,-6410zm-16607 -26581c3,-138 117,-246 255,-243 138,3 246,117 243,255 -15,616 -19,1203 28,1814 46,602 142,1223 327,1912 36,133 -44,270 -177,306 -133,36 -270,-44 -306,-177 -194,-722 -295,-1373 -343,-2004 -48,-621 -43,-1227 -28,-1863zm-6824 -3229c7,-11 15,-22 23,-32l3 -4c386,-519 1670,-776 2975,-800 1269,-23 2604,165 3144,539 12,8 23,16 33,24 532,396 661,790 788,1180 66,202 132,402 281,570 193,217 379,380 633,481 277,110 653,164 1218,156 93,-1 217,-10 340,-18 417,-28 834,-56 1280,145 26,10 52,23 76,38 256,149 855,659 1445,1201 654,601 1321,1259 1501,1508 200,278 303,544 486,1019 20,51 42,107 122,311 1515,3853 3518,7033 5558,10274 967,1535 1941,3084 2866,4701 2738,4788 5448,9581 7810,14433 2367,4862 4386,9784 5733,14819 57,213 -70,432 -283,489 -31,8 -61,13 -91,13 -2286,153 -2484,-557 -2680,-1258 -64,-230 -128,-459 -432,-561 -436,-148 -1010,-193 -2038,-50 -1083,151 -2636,509 -4989,1167l0 0 -22 6c-695,195 -1152,323 -1688,-259l-2073 -2247 -6074 1260c-172,36 -342,-45 -426,-190l-708 -1121c-405,262 -813,530 -1203,810 -1502,1076 -2614,2259 -1599,3675 129,179 87,429 -92,558 -68,49 -147,73 -225,75l-2976 288c-193,18 -367,-104 -420,-283l-1 0c-1483,-4941 -3310,-9357 -5381,-13605 -2082,-4269 -4398,-8348 -6857,-12609 -2335,-3843 -3976,-7491 -4522,-11149 -550,-3685 8,-7368 2081,-11252 12,-22 25,-43 41,-62 701,-976 1731,-1359 2759,-1740 528,-196 1055,-392 1503,-664 407,-247 796,-515 1152,-822 346,-298 660,-632 928,-1016z" style="fill: url(#SvgjsLinearGradient11532); fill-rule: nonzero;"></path></g></g></svg>